<svg width="18" height="14" viewBox="0 0 18 14" fill="none" xmlns="http://www.w3.org/2000/svg">
<path d="M11.5025 0.333374C11.7183 0.333374 11.9891 0.390041 12.2066 0.443374C12.965 0.626708 13.8641 0.854208 14.5025 1.33337C15.0966 1.77921 15.5583 2.55671 15.915 3.34671C16.6566 4.99254 17.1725 7.18671 17.3508 8.85504C17.4358 9.64671 17.4566 10.4434 17.3041 10.9792C17.2291 11.2425 17.0666 11.4409 16.9525 11.5625C16.6041 11.9317 16.1558 12.2075 15.7125 12.4584L15.4925 12.5825C15.3476 12.6632 15.2017 12.742 15.055 12.8192L14.62 13.0442L14.0225 13.3417L13.5416 13.5784C13.3657 13.6665 13.1642 13.6895 12.9729 13.6434C12.7816 13.5972 12.6128 13.4848 12.4964 13.3261C12.38 13.1674 12.3236 12.9726 12.337 12.7763C12.3505 12.5799 12.433 12.3947 12.57 12.2534L12.2083 11.53C11.1683 11.8461 10.0869 12.0045 8.99997 12C7.85831 12 6.76914 11.8334 5.79164 11.53L5.4308 12.2517C5.56827 12.3928 5.65131 12.578 5.66519 12.7745C5.67907 12.971 5.62289 13.1661 5.50663 13.3251C5.39036 13.4841 5.22153 13.5968 5.03008 13.6432C4.83863 13.6895 4.63694 13.6666 4.4608 13.5784L4.00747 13.3534C3.50414 13.105 3.0008 12.8567 2.5108 12.5825C1.99914 12.2967 1.45664 11.9925 1.0508 11.5617C0.888851 11.398 0.768291 11.198 0.699138 10.9784C0.545804 10.4434 0.567471 9.64754 0.651638 8.85504C0.829971 7.18671 1.3458 4.99254 2.0883 3.34671C2.44414 2.55671 2.9058 1.77921 3.49997 1.33337C4.1383 0.854208 5.03747 0.626708 5.7958 0.443374C6.0133 0.390041 6.2833 0.333374 6.49997 0.333374C6.61982 0.333271 6.73828 0.359021 6.84728 0.408867C6.95627 0.458712 7.05323 0.531482 7.13154 0.622211C7.20985 0.712939 7.26767 0.819491 7.30105 0.934599C7.33443 1.04971 7.34259 1.17066 7.32497 1.28921C7.87952 1.20716 8.43938 1.16621 8.99997 1.16671C9.57581 1.16671 10.1383 1.20837 10.6783 1.29004C10.6606 1.17143 10.6686 1.05039 10.7019 0.935176C10.7353 0.819966 10.7931 0.713306 10.8714 0.622482C10.9497 0.531658 11.0467 0.458811 11.1558 0.408915C11.2648 0.35902 11.3825 0.333253 11.5025 0.333374ZM12.6308 2.30254C12.5058 2.26254 12.4758 2.28004 12.4308 2.35504L12.3791 2.44837C12.2444 2.67926 12.0399 2.86143 11.7951 2.96866C11.5502 3.07589 11.2777 3.10263 11.0166 3.04504C10.3539 2.90277 9.67782 2.83181 8.99997 2.83337C8.28997 2.83337 7.61081 2.90837 6.98331 3.04504C6.72228 3.10263 6.44971 3.07589 6.20486 2.96866C5.96 2.86143 5.7555 2.67926 5.62081 2.44837L5.56914 2.35587C5.52497 2.28087 5.49497 2.26337 5.3708 2.30254C5.07414 2.39671 4.7558 2.49754 4.49997 2.66671C4.2608 2.84587 3.94164 3.29171 3.60747 4.03254C2.96914 5.44671 2.46914 7.53588 2.30914 9.03254C2.2758 9.34838 2.2583 9.61921 2.25414 9.84254V10.0875C2.25747 10.2359 2.2683 10.3534 2.2833 10.4384C2.49497 10.6459 2.75664 10.8084 3.01914 10.9575L3.58747 11.2717L3.95914 11.4675L4.26247 10.8609C4.11561 10.724 4.02308 10.5388 4.00189 10.3392C3.98069 10.1396 4.03227 9.939 4.14712 9.77438C4.26197 9.60975 4.43239 9.49211 4.62705 9.44309C4.8217 9.39407 5.02751 9.41695 5.20664 9.50754C6.21997 10.0167 7.53831 10.3334 8.99997 10.3334C10.4608 10.3334 11.78 10.015 12.7933 9.50837C12.9648 9.42247 13.1606 9.39834 13.3478 9.44006C13.535 9.48178 13.7021 9.5868 13.8209 9.73739C13.9396 9.88798 14.0028 10.0749 13.9998 10.2667C13.9967 10.4585 13.9276 10.6433 13.8041 10.79L13.7375 10.8609L14.0408 11.4692C14.2891 11.3409 14.5383 11.205 14.7883 11.0667C15.1133 10.8867 15.455 10.6975 15.7191 10.4392C15.7341 10.3534 15.7441 10.2359 15.7483 10.0875V9.84254C15.7415 9.5716 15.7232 9.30108 15.6933 9.03171C15.5333 7.53587 15.0333 5.44671 14.395 4.03171C14.0616 3.29171 13.7416 2.84587 13.5033 2.66671C13.2466 2.49754 12.9283 2.39671 12.6308 2.30254ZM6.29164 5.75004C6.67841 5.75004 7.04935 5.90369 7.32284 6.17718C7.59633 6.45067 7.74997 6.8216 7.74997 7.20837C7.74997 7.59515 7.59633 7.96608 7.32284 8.23957C7.04935 8.51306 6.67841 8.66671 6.29164 8.66671C5.90486 8.66671 5.53393 8.51306 5.26044 8.23957C4.98695 7.96608 4.8333 7.59515 4.8333 7.20837C4.8333 6.8216 4.98695 6.45067 5.26044 6.17718C5.53393 5.90369 5.90486 5.75004 6.29164 5.75004ZM11.7083 5.75004C12.0951 5.75004 12.466 5.90369 12.7395 6.17718C13.013 6.45067 13.1666 6.8216 13.1666 7.20837C13.1666 7.59515 13.013 7.96608 12.7395 8.23957C12.466 8.51306 12.0951 8.66671 11.7083 8.66671C11.3215 8.66671 10.9506 8.51306 10.6771 8.23957C10.4036 7.96608 10.25 7.59515 10.25 7.20837C10.25 6.8216 10.4036 6.45067 10.6771 6.17718C10.9506 5.90369 11.3215 5.75004 11.7083 5.75004Z" fill="white"/>
</svg>
