<svg width="228" height="2" viewBox="0 0 228 2" fill="none" xmlns="http://www.w3.org/2000/svg">
<path d="M0.520508 1.09799L7.60963 0.963648L14.6988 0.862168L28.877 0.661868C38.3292 0.557095 47.7816 0.462173 57.2338 0.402175C66.6859 0.319789 76.1384 0.301282 85.5905 0.252925L113.947 0.203369L142.304 0.250556C151.756 0.300406 161.209 0.316525 170.661 0.399806C180.113 0.460103 189.565 0.555025 199.018 0.6595L213.196 0.861294L220.285 0.963356L227.374 1.09858L220.285 1.2338L213.196 1.3359L199.018 1.53769C189.565 1.64247 180.113 1.73709 170.661 1.79739C161.209 1.88067 151.756 1.89649 142.304 1.94664L113.947 1.99379L85.5905 1.94423C76.1384 1.89558 66.6859 1.87737 57.2338 1.79498C47.7816 1.73498 38.3292 1.64006 28.877 1.53529L14.6988 1.33499L7.60963 1.23351L0.520508 1.09799Z" fill="#3B945E"/>
</svg>
